# xmcd CD database file
#
# Track frame offsets:
#	150
#	32899
#	64517
#	89655
#	117000
#
# Disc length: 1952 seconds
#
# Revision: 0
# Processed by: cddbd v1.5.2PL0 Copyright (c) Steve Scherf et al.
# Submitted via: CDex 1.70beta2
#
DISCID=3b079e05
DTITLE=佐山雅弘 and his Red Zone - Red Zone
DYEAR=2009
DGENRE=Jazz
TTITLE0=Dead Zone
TTITLE1=Love Goes Marching On
TTITLE2=Matador
TTITLE3=Chase The Shade
TTITLE4=P-Bop
EXTD=YEAR: 2009
EXTT0=
EXTT1=
EXTT2=
EXTT3=
EXTT4=
PLAYORDER=
